<?xml version="1.0" encoding="utf-8"?>
<svg id="Layer_1" enable-background="new 0 0 512 512" height="512" viewBox="0 0 512 512" width="512" xmlns="http://www.w3.org/2000/svg">
  <g>
    <path d="m406 0h-276c-25.364 0-46 20.636-46 46v34c0 8.836 7.164 16 16 16h8v262.7c-28.225 12.37-48 40.563-48 73.3 0 44.112 35.888 80 80 80 29.546 0 55.383-16.112 69.237-40h113.703l13.518 22.536c6.478 10.772 18.304 17.464 30.862 17.464h44.68c8.836 0 16-7.164 16-16v-400h8c8.836 0 16-7.164 16-16v-34c0-25.364-20.636-46-46-46zm-290 46c0-7.72 6.28-14 14-14h276c7.72 0 14 6.28 14 14v18h-8-288-8zm24 434c-26.467 0-48-21.533-48-48s21.533-48 48-48 48 21.533 48 48-21.533 48-48 48zm256 0h-28.68c-1.396 0-2.713-.75-3.429-1.94l-18.17-30.29c-2.891-4.82-8.1-7.77-13.721-7.77h-112.401c.263-2.632.401-5.3.401-8 0-44.112-35.888-80-80-80v-256h256z" style=""/>
    <path d="m140.02 448c-8.836 0-16.005-7.164-16.005-16s7.158-16 15.995-16h.01c8.836 0 16 7.164 16 16s-7.164 16-16 16z" style=""/>
  </g>
</svg>