<svg id="Capa_1" enable-background="new 0 0 512 512" height="512" viewBox="0 0 512 512" width="512" xmlns="http://www.w3.org/2000/svg"><g><g><path d="m360.5 433.203v-196.997c0-10.201-8.299-18.5-18.5-18.5h-172c-10.201 0-18.5 8.299-18.5 18.5v196.997c0 10.201 8.299 18.5 18.5 18.5h172c10.201 0 18.5-8.299 18.5-18.5zm-194 0v-196.997c0-1.93 1.57-3.5 3.5-3.5h172c1.93 0 3.5 1.57 3.5 3.5v196.997c0 1.93-1.57 3.5-3.5 3.5h-172c-1.93 0-3.5-1.57-3.5-3.5z"/><path d="m428.815 122.072h-10.62l-23.752-101.538c-2.827-12.09-13.474-20.534-25.89-20.534-3.15 0-223.723 0-225.105 0-12.416 0-23.063 8.444-25.891 20.534l-2.609 11.154c-.943 4.033 1.562 8.067 5.595 9.011 4.022.943 8.067-1.561 9.011-5.595l2.609-11.154c1.232-5.27 5.873-8.95 11.285-8.95h8.004l14.78 63.178v.001c2.508 10.719 11.947 18.205 22.956 18.205h133.625c11.009 0 20.448-7.486 22.956-18.206l14.779-63.178h8.004c5.412 0 10.053 3.681 11.285 8.95l22.953 98.122h-293.581l12.371-52.888c.943-4.033-1.562-8.067-5.595-9.011-4.026-.943-8.067 1.561-9.011 5.595l-13.171 56.304h-10.62c-8.567 0-15.538 6.971-15.538 15.538v30.893c0 8.567 6.971 15.537 15.538 15.537h8.381l14.576 302.649c.684 14.192 12.351 25.311 26.56 25.311h172.775c4.143 0 7.5-3.357 7.5-7.5s-3.357-7.5-7.5-7.5h-172.774c-6.193 0-11.279-4.847-11.577-11.032l-14.541-301.927h298.834l-14.541 301.926c-.298 6.187-5.384 11.033-11.577 11.033h-38.822c-4.143 0-7.5 3.357-7.5 7.5s3.357 7.5 7.5 7.5h38.822c14.209 0 25.876-11.118 26.56-25.312l14.576-302.648h8.381c8.567 0 15.538-6.97 15.538-15.537v-30.893c0-8.567-6.971-15.538-15.539-15.538zm-97.652-47.311c-.912 3.899-4.346 6.623-8.351 6.623h-133.624c-4.005 0-7.438-2.724-8.351-6.623v.001l-13.981-59.762h178.287zm97.652 94.279h-345.63c-.297 0-.538-.241-.538-.537 0-32.545-.341-31.431.538-31.431h345.631c.297 0 .538.241.538.538 0 32.545.34 31.43-.539 31.43z"/></g></g></svg>